<?xml version="1.0" standalone="no"?>
<!DOCTYPE svg PUBLIC "-//W3C//DTD SVG 20010904//EN"
 "http://www.w3.org/TR/2001/REC-SVG-20010904/DTD/svg10.dtd">
<svg version="1.0" xmlns="http://www.w3.org/2000/svg"
 width="1285.000000pt" height="1285.000000pt" viewBox="0 0 1285.000000 1285.000000"
 preserveAspectRatio="xMidYMid meet">
<metadata>
Created by potrace 1.14, written by Peter Selinger 2001-2017
</metadata>
<g transform="translate(0.000000,1285.000000) scale(0.100000,-0.100000)"
fill="#000000" stroke="none">
<path d="M6207 11034 c-1 -1 -96 -5 -212 -8 -115 -4 -235 -9 -265 -11 -305
-21 -328 -23 -553 -51 -256 -31 -258 -32 -457 -68 -303 -55 -745 -182 -927
-266 -24 -11 -45 -20 -49 -20 -16 0 -294 -146 -388 -204 -326 -202 -648 -485
-926 -816 -30 -36 -57 -67 -60 -70 -16 -15 -168 -221 -236 -320 -239 -343
-412 -688 -547 -1090 -39 -116 -106 -361 -121 -440 -2 -14 -11 -59 -19 -100
-23 -111 -31 -160 -43 -255 -4 -33 -9 -67 -10 -75 -1 -8 -5 -51 -9 -95 -4 -44
-9 -96 -10 -115 -2 -19 -5 -68 -6 -108 -1 -40 -5 -75 -10 -78 -5 -3 -5 -13 0
-22 6 -11 6 -24 0 -34 -6 -10 -5 -26 0 -41 5 -14 8 -27 5 -30 -6 -5 -6 -174
-1 -282 3 -49 0 -86 -7 -94 -8 -11 -8 -13 2 -7 9 5 12 -5 13 -41 2 -72 7 -130
17 -215 6 -43 9 -95 8 -117 -1 -22 1 -38 6 -35 7 5 10 -15 12 -108 1 -20 4
-34 9 -31 4 2 7 -9 7 -26 0 -16 4 -41 10 -55 7 -19 6 -26 -3 -26 -8 0 -9 -3
-1 -8 14 -9 67 -269 58 -284 -4 -6 -3 -8 3 -5 11 7 46 -121 37 -135 -3 -4 0
-8 7 -8 6 0 9 -8 6 -20 -3 -11 -2 -20 2 -20 10 0 32 -71 25 -82 -3 -4 -1 -8 4
-8 5 0 12 -12 16 -27 3 -16 9 -39 12 -52 6 -18 4 -22 -6 -16 -9 5 -11 4 -6 -4
4 -6 11 -9 15 -6 11 6 32 -69 25 -91 -4 -13 -3 -15 3 -6 7 9 13 0 23 -30 8
-24 17 -47 20 -53 4 -5 15 -32 25 -60 17 -49 58 -146 97 -233 10 -23 16 -48
12 -54 -4 -7 -3 -8 4 -4 11 6 14 0 11 -20 0 -4 4 -10 9 -13 17 -11 43 -71 36
-83 -4 -6 -3 -8 3 -5 13 8 26 -20 16 -36 -3 -7 -2 -9 2 -5 11 11 98 -150 89
-164 -4 -7 -3 -8 4 -4 8 4 16 -4 23 -21 6 -15 10 -30 9 -31 -1 -2 6 -9 16 -16
11 -8 14 -18 9 -26 -6 -9 -4 -11 5 -5 10 6 12 4 7 -8 -4 -10 -2 -16 6 -14 7 1
11 -6 11 -15 -1 -10 2 -15 7 -12 8 5 10 1 13 -36 1 -8 7 -14 14 -13 6 2 19
-12 28 -30 9 -17 23 -40 31 -49 8 -9 12 -21 9 -27 -4 -5 -1 -13 5 -17 8 -5 9
-3 4 7 -18 32 15 -11 69 -89 31 -45 54 -88 50 -94 -4 -6 -3 -8 3 -5 14 9 46
-40 37 -55 -4 -6 -3 -8 4 -4 13 8 44 -22 37 -35 -4 -5 -1 -9 5 -9 6 0 8 -5 4
-12 -4 -6 -3 -8 3 -5 14 9 37 -19 27 -34 -4 -7 -3 -9 4 -5 13 8 55 -48 44 -59
-4 -5 -2 -5 5 -1 7 3 21 -7 34 -26 13 -18 31 -42 41 -52 14 -15 15 -22 6 -29
-9 -6 -8 -7 4 -4 11 4 28 -9 54 -41 21 -26 42 -50 47 -53 5 -4 3 -9 -4 -12 -8
-3 -4 -6 9 -6 20 -1 27 -11 23 -34 -1 -5 3 -6 7 -3 12 7 44 -28 35 -37 -3 -4
-1 -7 6 -7 17 0 137 -131 133 -146 -1 -7 2 -15 8 -19 6 -4 7 1 3 12 -5 14 -1
13 20 -6 15 -13 24 -29 20 -35 -3 -6 -2 -8 2 -3 13 12 114 -93 108 -112 -3
-11 -2 -12 4 -4 6 9 18 4 45 -20 19 -18 60 -54 89 -80 30 -26 61 -52 69 -57
13 -9 13 -11 0 -21 -12 -8 -11 -9 5 -5 15 4 34 -6 68 -37 26 -24 47 -42 47
-39 0 3 9 -3 20 -13 11 -10 17 -22 13 -28 -4 -6 0 -8 10 -4 9 3 26 -4 42 -19
14 -13 53 -42 86 -65 53 -36 59 -43 47 -57 -11 -15 -11 -15 3 -5 13 11 27 5
85 -33 38 -25 68 -52 68 -60 -1 -10 2 -12 10 -5 8 7 29 -1 69 -28 31 -21 55
-40 51 -43 -3 -3 3 -5 13 -5 10 1 17 -4 15 -11 -1 -8 2 -11 8 -7 10 6 100 -40
112 -59 4 -6 8 -8 8 -3 0 4 13 1 29 -8 21 -11 29 -21 26 -35 -2 -12 0 -18 6
-15 5 4 7 11 4 16 -4 5 -2 9 4 9 15 0 71 -34 71 -43 0 -5 4 -6 9 -3 8 6 109
-39 121 -53 3 -3 12 -7 20 -9 27 -5 90 -35 86 -41 -2 -3 6 -7 17 -8 45 -3 132
-42 131 -58 -1 -11 2 -13 10 -5 14 11 152 -30 141 -42 -4 -4 3 -4 16 -1 14 4
20 2 16 -4 -5 -7 1 -9 15 -5 13 3 19 1 15 -5 -5 -7 1 -9 15 -5 16 4 19 2 13
-8 -5 -9 -4 -11 4 -6 14 9 101 -14 101 -27 0 -4 4 -6 9 -3 12 8 72 -5 66 -13
-2 -4 6 -7 18 -7 34 1 156 -27 152 -34 -2 -3 9 -5 26 -4 16 1 29 -2 29 -8 0
-5 4 -7 8 -4 16 10 147 -18 160 -33 11 -14 11 -14 6 3 -6 17 -5 17 17 5 13 -7
25 -12 27 -11 1 1 5 2 10 1 4 0 23 -1 42 -2 25 -2 34 -6 32 -17 -3 -12 -1 -13
9 -2 7 6 21 12 32 12 12 0 16 -4 11 -12 -6 -10 -5 -10 7 -1 8 7 20 8 27 4 8
-4 25 -6 39 -3 21 4 25 2 20 -11 -3 -9 -2 -19 4 -22 5 -4 9 -3 8 2 -4 23 3 34
19 29 23 -7 147 -16 244 -17 56 -1 76 -4 71 -13 -4 -6 1 -5 10 3 14 11 17 11
17 0 0 -9 3 -10 8 -4 9 14 85 14 94 1 5 -7 8 -5 8 4 0 13 1 13 10 0 6 -10 10
-11 10 -2 0 6 5 12 11 12 5 0 8 -4 5 -8 -3 -5 1 -9 9 -9 8 0 12 3 10 7 -2 4 9
7 25 7 18 0 27 -4 23 -11 -4 -6 0 -5 9 2 8 7 41 12 74 12 52 0 199 7 199 10 0
1 20 4 44 6 42 5 44 4 30 -13 -12 -16 -12 -17 2 -6 9 7 20 9 24 5 5 -4 5 -2 1
5 -7 13 28 26 60 22 11 -1 26 1 34 4 8 4 39 8 68 10 29 2 55 7 59 10 3 4 13 1
21 -6 13 -9 14 -9 8 0 -4 8 -2 13 8 13 8 0 17 -6 19 -12 4 -9 6 -8 6 2 1 16
23 21 93 24 20 0 34 4 32 7 -3 6 13 11 85 25 14 3 32 -2 45 -13 19 -17 20 -17
7 0 -8 9 -12 19 -10 20 7 5 183 50 201 52 10 0 21 4 24 8 14 13 26 7 15 -7 -8
-10 -9 -16 -1 -21 6 -4 9 -1 8 7 -2 7 2 12 9 11 7 -2 10 4 6 13 -4 12 0 14 21
10 15 -3 24 -2 22 2 -2 4 41 23 97 42 56 19 114 40 129 48 15 7 32 11 37 8 5
-4 11 -3 13 1 6 14 79 43 90 37 7 -5 8 -2 3 6 -6 9 -2 10 15 5 15 -5 20 -3 16
3 -3 6 4 14 16 18 13 4 59 24 102 45 44 21 83 36 88 33 4 -3 8 0 8 6 0 7 7 9
16 6 8 -3 13 -2 10 2 -6 10 122 78 141 76 7 -1 10 2 7 7 -3 5 0 9 6 9 6 0 28
12 50 26 22 15 44 23 51 18 7 -4 10 -3 6 2 -7 13 186 134 194 122 3 -5 9 0 12
12 3 12 10 19 16 15 6 -3 11 -2 11 2 0 16 91 74 103 67 7 -4 9 -4 5 1 -4 4 -3
14 3 22 14 16 33 18 23 1 -4 -7 -3 -8 5 -4 6 4 9 11 7 15 -6 9 143 117 156
113 4 -1 7 2 6 6 -2 5 10 20 27 34 27 23 31 24 42 9 11 -14 11 -13 7 5 -4 15
2 27 20 41 14 11 51 42 82 69 31 27 61 48 66 46 5 -1 7 2 4 7 -7 10 73 77 86
73 5 -1 7 1 4 6 -7 12 58 74 69 65 4 -5 5 -3 2 3 -8 14 76 97 88 87 4 -5 5 -3
2 3 -8 15 22 56 35 48 6 -4 8 -3 5 3 -4 6 3 19 14 29 12 11 51 56 87 101 35
45 69 80 75 76 6 -3 7 -2 4 4 -9 14 22 55 35 47 7 -4 8 -2 4 4 -9 15 34 73 47
65 6 -3 7 -1 3 5 -8 13 64 123 76 116 3 -2 10 1 14 7 4 8 3 9 -4 5 -17 -10
-15 -2 9 38 12 20 25 33 30 30 5 -3 9 -2 8 3 -4 17 14 63 22 57 5 -3 9 3 9 13
1 24 25 55 35 45 5 -4 5 -2 2 4 -9 15 97 226 108 216 4 -4 5 0 3 8 -3 8 1 27
9 43 7 15 11 27 8 27 -4 0 1 10 9 22 9 12 16 31 16 41 0 11 4 15 12 11 6 -4 8
-3 5 3 -8 13 23 94 33 88 5 -3 6 3 4 12 -6 24 40 165 51 156 4 -5 5 -3 1 4 -5
10 23 135 41 183 6 17 9 31 11 73 1 16 5 26 10 24 4 -3 8 18 10 47 1 28 6 52
11 54 4 1 7 16 5 33 -2 16 0 28 4 25 4 -2 7 15 8 37 0 23 4 65 7 92 19 152 26
278 27 460 0 135 -8 306 -15 314 -3 2 1 11 8 19 9 13 9 14 0 8 -10 -5 -13 5
-14 41 0 26 -2 57 -4 68 -3 11 -7 40 -10 65 -3 25 -7 56 -10 70 -7 33 -18 110
-19 135 -1 11 -4 22 -8 25 -3 3 -9 21 -12 40 -4 19 -8 44 -10 55 -23 125 -127
446 -205 630 -207 486 -522 961 -954 1439 -106 117 -384 388 -505 492 -19 16
-44 39 -57 50 -68 62 -328 264 -460 358 -82 58 -154 109 -160 114 -11 9 -234
151 -262 167 -85 48 -112 68 -106 77 3 7 1 8 -6 4 -9 -6 -81 28 -81 38 0 1 17
1 38 1 24 -1 36 -5 34 -14 -1 -7 2 -10 8 -6 6 3 8 11 5 16 -4 5 -2 9 4 9 5 0
12 -6 14 -12 4 -10 6 -10 6 0 1 6 8 12 17 12 9 0 12 -5 8 -12 -5 -7 -3 -8 7
-2 23 14 51 16 43 2 -5 -7 -3 -8 7 -2 21 13 122 13 138 0 12 -9 13 -8 6 4 -8
13 -7 13 10 0 11 -9 16 -10 11 -2 -4 6 -2 12 3 12 10 0 15 -14 12 -33 -1 -5 3
-6 8 -2 6 3 8 12 4 20 -6 18 8 19 26 3 11 -11 12 -10 6 2 -8 13 -7 13 10 0 10
-8 16 -10 12 -3 -9 15 44 13 55 -2 5 -6 8 -4 8 4 0 11 4 9 15 -5 10 -12 14
-14 13 -4 -2 11 9 15 45 16 37 2 47 -1 43 -12 -3 -7 -1 -16 5 -19 5 -4 9 -3 8
2 -1 4 -1 15 0 23 1 13 2 13 11 0 8 -12 10 -12 10 -1 0 11 3 11 17 0 9 -8 14
-9 10 -3 -4 8 3 11 23 10 17 0 30 -5 30 -11 0 -5 5 -3 10 5 7 10 10 11 10 2 0
-9 4 -10 19 0 15 9 23 9 37 -3 16 -12 17 -12 9 1 -8 13 -7 13 10 0 11 -9 16
-10 11 -2 -4 6 -2 12 3 12 10 0 15 -14 12 -33 -1 -5 3 -6 8 -2 6 3 8 12 4 20
-6 18 8 19 26 3 8 -7 11 -8 8 -3 -7 13 52 14 72 1 11 -7 12 -6 6 5 -7 11 -5
11 10 -1 11 -9 16 -10 11 -2 -4 6 -2 12 3 12 10 0 15 -14 12 -33 -1 -5 3 -6 8
-2 6 3 8 12 4 20 -6 18 8 19 26 3 11 -11 12 -10 6 2 -8 13 -7 13 10 0 11 -9
16 -10 11 -2 -4 6 -2 12 3 12 6 0 11 -6 11 -12 0 -9 4 -8 10 2 6 10 10 11 10
3 0 -7 5 -13 11 -13 5 0 8 3 6 8 -3 4 26 8 65 8 54 1 68 -1 64 -12 -3 -7 -1
-16 5 -19 5 -4 9 -3 8 2 -1 4 -1 15 0 23 1 13 2 13 11 0 8 -12 10 -12 10 -1 0
11 3 11 17 0 9 -8 14 -9 10 -3 -4 8 3 11 23 10 17 0 30 -5 30 -11 0 -5 5 -3
10 5 7 10 10 11 10 2 0 -9 4 -10 19 0 15 9 23 9 37 -3 16 -12 17 -12 9 1 -8
13 -7 13 10 0 11 -9 16 -10 11 -2 -4 6 -2 12 3 12 10 0 15 -14 12 -33 -1 -5 3
-6 8 -2 6 3 8 12 4 20 -6 18 8 19 26 3 8 -7 11 -8 8 -2 -3 6 0 11 8 11 8 0 11
-5 8 -11 -4 -6 0 -5 8 1 12 10 18 10 29 0 10 -9 11 -9 6 1 -4 6 -2 12 3 12 10
0 15 -14 12 -33 -1 -5 3 -6 8 -2 6 3 8 12 4 20 -3 8 0 15 6 15 6 0 11 -6 11
-12 0 -9 3 -9 8 -2 8 12 81 12 101 0 10 -6 12 -5 7 2 -4 7 -2 12 3 12 10 0 15
-14 12 -33 -1 -5 3 -6 8 -2 6 3 8 12 5 20 -4 9 1 13 15 12 13 -1 20 -6 17 -14
-3 -7 0 -15 6 -19 6 -4 8 -3 5 2 -3 6 -2 16 3 24 8 12 13 13 29 3 13 -8 22 -9
26 -2 5 6 12 6 23 -3 12 -10 14 -10 8 0 -4 6 -2 12 3 12 10 0 15 -14 12 -33
-1 -5 3 -6 8 -2 6 3 8 12 4 20 -3 8 0 15 6 15 6 0 11 -6 11 -12 0 -9 3 -9 8
-2 8 12 81 12 101 0 10 -6 12 -5 7 2 -4 7 -2 12 3 12 10 0 15 -14 12 -33 -1
-5 3 -6 8 -2 6 3 8 12 5 20 -4 9 1 13 15 12 13 -1 20 -6 17 -14 -3 -7 0 -15 6
-19 6 -4 8 -3 5 2 -3 6 -2 16 3 24 8 13 13 13 31 2 11 -8 18 -9 15 -4 -10 16
68 8 82 -8 11 -13 12 -13 10 0 -2 12 7 15 42 15 28 0 45 -5 45 -12 0 -6 3 -15
7 -19 4 -3 6 3 3 15 -4 22 10 29 18 9 4 -10 6 -9 6 1 1 11 4 11 18 0 9 -8 14
-9 10 -3 -4 8 3 11 23 10 17 0 30 -5 30 -11 0 -5 5 -3 10 5 7 10 10 11 10 2 0
-9 4 -10 19 0 15 9 23 9 37 -3 16 -12 17 -12 9 1 -8 13 -7 13 10 0 11 -9 16
-10 11 -2 -4 6 -2 12 3 12 10 0 15 -14 12 -33 -1 -5 3 -6 8 -2 6 3 8 12 4 20
-6 18 8 19 26 3 11 -11 12 -10 6 2 -8 13 -7 13 10 0 11 -9 16 -10 11 -2 -4 6
-2 12 3 12 6 0 11 -6 11 -12 0 -8 3 -9 8 -3 4 6 42 11 85 11 62 1 77 -1 73
-12 -3 -7 -1 -16 5 -19 5 -4 9 -3 8 2 -1 4 -1 15 0 23 1 13 2 13 11 0 8 -12
10 -12 10 -1 0 11 3 11 17 0 9 -8 14 -9 10 -3 -4 8 3 11 23 10 17 0 30 -5 30
-11 0 -5 5 -3 10 5 7 10 10 11 10 2 0 -9 4 -10 19 0 15 9 23 9 37 -3 16 -12
17 -12 9 1 -8 13 -7 13 10 0 11 -9 16 -10 11 -2 -4 6 -2 12 3 12 10 0 15 -14
12 -33 -1 -5 3 -6 8 -2 6 3 8 12 4 20 -6 18 8 19 26 3 11 -11 12 -10 6 2 -8
13 -7 13 10 0 10 -8 16 -10 12 -3 -9 15 44 13 55 -2 5 -6 8 -4 8 4 0 11 4 9
15 -5 11 -13 14 -14 13 -4 -2 12 7 15 42 15 28 0 45 -5 45 -12 0 -6 3 -15 7
-19 4 -3 6 3 3 15 -4 22 10 29 18 9 4 -10 6 -9 6 1 1 11 4 11 18 0 9 -8 14 -9
10 -3 -4 8 3 11 23 10 17 0 30 -5 30 -11 0 -5 5 -3 10 5 8 12 10 12 10 1 0
-10 3 -11 13 -2 10 8 17 7 27 -2 10 -9 11 -9 6 1 -4 6 -2 12 3 12 10 0 15 -14
12 -33 -1 -5 3 -6 8 -2 6 3 8 12 4 20 -3 8 0 15 6 15 6 0 11 -6 11 -12 0 -9 3
-9 8 -2 8 12 81 12 101 0 10 -6 12 -5 7 2 -4 7 -2 12 3 12 10 0 15 -14 12 -33
-1 -5 3 -6 8 -2 6 3 8 12 5 20 -4 9 1 13 15 12 13 -1 20 -6 17 -14 -3 -7 0
-15 6 -19 6 -4 8 -3 5 2 -3 6 -2 16 3 24 8 12 13 13 29 3 13 -8 22 -9 26 -2 5
6 12 6 23 -3 12 -10 14 -10 8 0 -4 6 -2 12 3 12 6 0 11 -6 11 -12 0 -10 3 -9
9 1 5 7 14 10 20 7 8 -5 11 31 11 126 1 210 1 1007 0 1178 l0 155 -2541 0
c-1397 0 -2541 0 -2542 -1z m49 -1471 c-3 -7 0 -15 6 -19 6 -4 8 -3 5 3 -4 6
1 17 10 24 14 12 16 12 8 -1 -8 -13 -7 -13 8 -1 12 9 17 10 17 2 0 -7 5 -9 13
-4 17 11 30 11 46 -1 11 -8 13 -8 7 2 -4 6 -2 12 3 12 6 0 11 -6 11 -12 0 -9
4 -8 10 2 9 13 10 13 10 0 0 -9 3 -11 8 -5 11 16 45 13 60 -5 10 -13 12 -13
10 0 -2 11 9 15 44 16 32 1 46 -2 41 -9 -4 -6 -1 -7 8 -1 23 14 51 16 43 2 -5
-7 -3 -8 7 -2 32 20 117 6 103 -18 -4 -6 -3 -8 3 -5 10 7 80 -62 76 -75 -2 -4
2 -8 9 -8 16 0 59 -50 52 -61 -3 -5 1 -7 8 -5 7 2 37 -24 67 -57 30 -34 73
-82 95 -107 23 -25 63 -71 90 -103 42 -51 46 -60 35 -75 -12 -15 -12 -16 2 -4
14 11 21 8 43 -19 14 -17 23 -36 20 -41 -4 -6 -2 -8 3 -5 14 9 37 -19 27 -34
-5 -8 -3 -9 5 -4 12 7 40 -21 37 -38 0 -5 7 -13 17 -18 9 -6 15 -15 11 -20 -3
-5 0 -8 8 -7 7 2 12 -5 12 -14 -1 -10 2 -16 6 -13 12 7 41 -36 33 -48 -3 -6
-1 -7 5 -4 13 9 85 -90 76 -106 -4 -7 -4 -9 1 -5 11 10 22 -3 120 -147 111
-164 147 -224 139 -236 -3 -5 0 -8 7 -7 15 4 141 -211 132 -225 -3 -5 -2 -7 3
-4 10 5 79 -115 74 -129 -1 -4 2 -10 7 -13 12 -9 45 -71 38 -71 -3 0 4 -10 15
-22 11 -12 18 -28 16 -35 -3 -7 -1 -13 5 -13 6 0 7 -4 4 -10 -3 -5 -1 -10 5
-10 7 0 9 -7 6 -17 -4 -10 -4 -14 0 -10 10 9 46 -62 38 -74 -3 -5 -1 -9 4 -9
10 0 35 -50 28 -57 -3 -3 2 -12 10 -20 8 -9 13 -22 10 -30 -3 -8 -1 -11 4 -8
6 3 10 1 10 -6 0 -7 9 -32 21 -56 12 -24 22 -54 23 -67 0 -13 4 -22 7 -20 3 2
12 -16 19 -39 8 -23 17 -47 22 -53 5 -7 10 -25 11 -42 1 -17 4 -28 7 -26 10
10 123 -363 114 -377 -3 -5 -1 -9 4 -9 12 0 44 -148 36 -162 -4 -6 -2 -8 3 -5
6 4 13 -7 16 -26 3 -17 15 -83 26 -145 11 -61 23 -117 26 -122 4 -6 1 -18 -7
-27 -9 -12 -9 -15 0 -9 11 7 16 -14 15 -76 0 -10 3 -18 7 -18 3 0 6 -19 7 -42
1 -24 4 -54 7 -68 8 -40 15 -111 22 -222 3 -57 7 -122 9 -145 2 -28 -1 -43 -8
-43 -8 0 -7 -3 2 -9 11 -7 12 -51 8 -237 -4 -126 -8 -254 -10 -284 -2 -30 -5
-79 -5 -108 -1 -29 -5 -51 -9 -49 -5 3 -9 -29 -10 -70 -2 -64 -21 -213 -38
-293 -3 -14 -7 -38 -10 -55 -2 -16 -6 -41 -9 -55 -4 -14 -8 -34 -11 -45 -2
-11 -7 -31 -10 -45 -3 -14 -8 -38 -11 -55 -3 -16 -8 -32 -12 -35 -4 -3 -8 -14
-9 -25 -5 -49 -36 -163 -53 -194 -6 -12 -9 -21 -6 -21 9 0 -120 -348 -135
-365 -5 -5 -9 -17 -9 -27 0 -10 -4 -18 -10 -18 -5 0 -10 -7 -10 -15 0 -22 -90
-197 -181 -350 -161 -272 -344 -501 -530 -664 -99 -86 -117 -102 -159 -131
-19 -13 -37 -27 -40 -30 -10 -11 -156 -98 -225 -133 -191 -98 -404 -159 -634
-183 -77 -8 -321 -8 -406 0 -79 8 -233 33 -285 46 -19 5 -47 11 -61 14 -14 2
-68 18 -120 34 -307 99 -565 239 -829 450 -117 94 -342 311 -431 417 -19 22
-36 42 -39 45 -13 12 -170 211 -217 275 -61 84 -232 344 -263 400 -12 22 -37
67 -56 100 -125 217 -290 593 -370 850 -25 77 -51 160 -59 185 -13 42 -52 191
-61 235 -2 11 -6 29 -9 40 -17 78 -54 279 -59 322 -3 28 -8 57 -10 65 -3 7 -7
40 -10 72 -3 33 -8 62 -11 64 -3 3 1 12 8 20 9 13 9 14 0 8 -10 -5 -13 5 -14
41 -1 55 -6 106 -14 146 -3 20 -1 26 8 21 9 -6 9 -4 1 7 -15 19 -19 105 -18
466 0 213 4 316 12 325 7 8 7 19 2 28 -5 8 -6 18 -4 22 3 5 8 37 10 71 5 61
11 117 14 127 1 3 1 13 0 24 -1 10 3 15 9 12 6 -4 8 4 5 20 -3 15 0 50 5 78 6
28 12 61 14 73 2 11 9 29 17 39 12 15 12 16 1 9 -11 -6 -13 -3 -8 16 4 13 10
41 13 61 4 21 10 35 15 32 5 -3 6 2 2 11 -3 10 0 21 8 26 8 5 9 9 2 9 -7 0 -5
18 8 58 10 31 26 83 35 115 8 31 20 55 25 52 5 -3 6 1 3 9 -7 18 35 138 46
131 5 -3 6 4 3 15 -3 11 0 20 6 20 6 0 10 3 9 8 -4 18 15 61 25 55 6 -3 7 -1
3 6 -9 13 88 212 120 246 12 13 19 27 15 30 -3 4 1 12 9 18 8 7 23 28 33 47
28 56 162 225 176 222 7 -1 9 2 6 8 -9 15 24 51 39 43 6 -3 8 -2 3 2 -10 12
53 76 67 68 6 -3 8 -2 3 2 -9 11 23 46 35 39 4 -3 7 0 6 8 -2 7 3 12 10 10 8
-1 11 2 8 7 -8 12 34 42 47 34 6 -3 7 -1 3 6 -7 11 44 62 52 51 2 -3 8 3 13
13 17 29 89 76 107 70 13 -4 14 -2 4 5 -10 7 -7 13 12 26 14 9 26 14 26 12 0
-3 15 8 32 25 18 16 39 27 46 24 7 -3 11 -1 8 4 -8 12 42 43 56 35 6 -4 9 -3
5 2 -6 11 113 84 141 87 12 0 18 5 16 9 -5 7 12 12 19 6 1 -2 13 7 27 20 15
14 31 20 43 16 14 -4 17 -3 12 7 -6 9 -3 11 9 6 9 -4 14 -3 11 2 -11 19 19 23
33 5 14 -18 14 -18 8 2 -6 19 1 25 51 45 32 13 69 29 83 36 14 7 30 13 36 13
6 0 25 7 42 16 18 8 37 12 43 8 8 -5 9 -3 4 6 -6 10 -3 12 13 8 12 -3 23 -1
24 4 2 6 18 11 35 12 17 0 29 4 27 8 -6 9 34 21 46 13 5 -3 10 -1 10 6 0 7 10
9 25 7 13 -3 22 -1 19 3 -5 9 30 20 71 23 14 0 25 5 25 10 0 4 9 6 20 3 11 -3
20 -1 20 4 0 6 6 9 13 8 6 -1 19 1 27 4 27 11 94 24 122 23 14 -1 24 3 21 8
-3 5 5 7 20 4 15 -3 28 -1 29 4 2 5 31 10 65 11 33 1 59 6 56 11 -3 5 8 7 26
4 17 -2 31 -1 31 4 0 4 12 8 26 8 17 0 23 -4 18 -12 -4 -7 2 -5 13 5 23 20 64
22 82 5 10 -11 11 -9 5 7 -7 18 -6 19 11 5 13 -10 16 -11 11 -2 -6 11 0 13 31
11 21 -2 44 0 51 5 7 4 12 2 12 -6 0 -9 3 -9 10 2 9 14 14 7 11 -13 -1 -5 3
-6 9 -2 6 3 8 10 5 15 -7 12 104 17 117 5 7 -7 9 -6 5 1 -5 8 12 12 54 12 33
0 62 1 64 3 2 2 24 4 49 4 32 0 45 -4 42 -12z"/>
<path d="M6593 9555 c0 -8 4 -12 9 -9 5 3 6 10 3 15 -9 13 -12 11 -12 -6z"/>
<path d="M5310 9450 c0 -5 5 -10 11 -10 5 0 7 5 4 10 -3 6 -8 10 -11 10 -2 0
-4 -4 -4 -10z"/>
<path d="M5340 9456 c0 -2 8 -10 18 -17 15 -13 16 -12 3 4 -13 16 -21 21 -21
13z"/>
<path d="M5100 9396 c0 -2 8 -10 18 -17 15 -13 16 -12 3 4 -13 16 -21 21 -21
13z"/>
<path d="M5053 9375 c0 -8 4 -12 9 -9 5 3 6 10 3 15 -9 13 -12 11 -12 -6z"/>
<path d="M6886 9348 c3 -5 10 -6 15 -3 13 9 11 12 -6 12 -8 0 -12 -4 -9 -9z"/>
<path d="M4875 9310 c3 -5 8 -10 11 -10 2 0 4 5 4 10 0 6 -5 10 -11 10 -5 0
-7 -4 -4 -10z"/>
<path d="M6930 9316 c0 -2 7 -7 16 -10 8 -3 12 -2 9 4 -6 10 -25 14 -25 6z"/>
<path d="M4775 9291 c-3 -5 -2 -12 3 -15 5 -3 9 1 9 9 0 17 -3 19 -12 6z"/>
<path d="M4690 9230 c0 -5 5 -10 11 -10 5 0 7 5 4 10 -3 6 -8 10 -11 10 -2 0
-4 -4 -4 -10z"/>
<path d="M4395 9109 c-3 -4 2 -6 10 -5 21 3 28 13 10 13 -9 0 -18 -4 -20 -8z"/>
<path d="M4280 9030 c-8 -5 -10 -10 -5 -10 6 0 17 5 25 10 8 5 11 10 5 10 -5
0 -17 -5 -25 -10z"/>
<path d="M3666 8488 c3 -5 10 -6 15 -3 13 9 11 12 -6 12 -8 0 -12 -4 -9 -9z"/>
<path d="M3433 8135 c0 -8 4 -12 9 -9 5 3 6 10 3 15 -9 13 -12 11 -12 -6z"/>
<path d="M8150 7450 c0 -5 5 -10 11 -10 5 0 7 5 4 10 -3 6 -8 10 -11 10 -2 0
-4 -4 -4 -10z"/>
<path d="M7553 9555 c0 -8 4 -12 9 -9 5 3 6 10 3 15 -9 13 -12 11 -12 -6z"/>
<path d="M7693 9555 c0 -8 4 -12 9 -9 5 3 6 10 3 15 -9 13 -12 11 -12 -6z"/>
<path d="M8173 9555 c0 -8 4 -12 9 -9 5 3 6 10 3 15 -9 13 -12 11 -12 -6z"/>
<path d="M8333 9555 c0 -8 4 -12 9 -9 5 3 6 10 3 15 -9 13 -12 11 -12 -6z"/>
<path d="M8813 9555 c0 -8 4 -12 9 -9 5 3 6 10 3 15 -9 13 -12 11 -12 -6z"/>
<path d="M9933 9555 c0 -8 4 -12 9 -9 5 3 6 10 3 15 -9 13 -12 11 -12 -6z"/>
<path d="M10413 9555 c0 -8 4 -12 9 -9 5 3 6 10 3 15 -9 13 -12 11 -12 -6z"/>
<path d="M8080 9550 c-9 -6 -10 -10 -3 -10 6 0 15 5 18 10 8 12 4 12 -15 0z"/>
<path d="M8720 9550 c-9 -6 -10 -10 -3 -10 6 0 15 5 18 10 8 12 4 12 -15 0z"/>
<path d="M9090 9549 c0 -5 5 -7 10 -4 6 3 10 8 10 11 0 2 -4 4 -10 4 -5 0 -10
-5 -10 -11z"/>
<path d="M9410 9549 c0 -5 5 -7 10 -4 6 3 10 8 10 11 0 2 -4 4 -10 4 -5 0 -10
-5 -10 -11z"/>
<path d="M10320 9550 c-9 -6 -10 -10 -3 -10 6 0 15 5 18 10 8 12 4 12 -15 0z"/>
<path d="M11010 9549 c0 -5 5 -7 10 -4 6 3 10 8 10 11 0 2 -4 4 -10 4 -5 0
-10 -5 -10 -11z"/>
<path d="M11190 9546 c0 -2 8 -10 18 -17 15 -13 16 -12 3 4 -13 16 -21 21 -21
13z"/>
<path d="M2250 3706 c0 -2 8 -10 18 -17 15 -13 16 -12 3 4 -13 16 -21 21 -21
13z"/>
<path d="M2559 3283 c-13 -16 -12 -17 4 -4 9 7 17 15 17 17 0 8 -8 3 -21 -13z"/>
<path d="M3070 2771 c0 -6 4 -13 10 -16 6 -3 7 1 4 9 -7 18 -14 21 -14 7z"/>
<path d="M3110 2731 c0 -6 4 -13 10 -16 6 -3 7 1 4 9 -7 18 -14 21 -14 7z"/>
<path d="M9026 2648 c3 -5 10 -6 15 -3 13 9 11 12 -6 12 -8 0 -12 -4 -9 -9z"/>
<path d="M8655 2371 c-3 -5 -2 -12 3 -15 5 -3 9 1 9 9 0 17 -3 19 -12 6z"/>
<path d="M8506 2268 c3 -5 10 -6 15 -3 13 9 11 12 -6 12 -8 0 -12 -4 -9 -9z"/>
<path d="M3755 2230 c3 -5 8 -10 11 -10 2 0 4 5 4 10 0 6 -5 10 -11 10 -5 0
-7 -4 -4 -10z"/>
<path d="M8313 2155 c0 -8 4 -12 9 -9 5 3 6 10 3 15 -9 13 -12 11 -12 -6z"/>
<path d="M7900 1956 c0 -2 8 -10 18 -17 15 -13 16 -12 3 4 -13 16 -21 21 -21
13z"/>
<path d="M4295 1941 c-3 -5 -2 -12 3 -15 5 -3 9 1 9 9 0 17 -3 19 -12 6z"/>
<path d="M4456 1877 c3 -10 9 -15 12 -12 3 3 0 11 -7 18 -10 9 -11 8 -5 -6z"/>
<path d="M4575 1830 c-3 -5 -1 -10 4 -10 6 0 11 5 11 10 0 6 -2 10 -4 10 -3 0
-8 -4 -11 -10z"/>
<path d="M4630 1826 c0 -2 8 -10 18 -17 15 -13 16 -12 3 4 -13 16 -21 21 -21
13z"/>
<path d="M7550 1810 c0 -5 5 -10 11 -10 5 0 7 5 4 10 -3 6 -8 10 -11 10 -2 0
-4 -4 -4 -10z"/>
<path d="M7310 1746 c0 -2 8 -10 18 -17 15 -13 16 -12 3 4 -13 16 -21 21 -21
13z"/>
<path d="M4931 1723 c7 -12 15 -20 18 -17 3 2 -3 12 -13 22 -17 16 -18 16 -5
-5z"/>
<path d="M5040 1690 c-9 -6 -10 -10 -3 -10 6 0 15 5 18 10 8 12 4 12 -15 0z"/>
<path d="M5070 1693 c0 -6 8 -17 18 -24 16 -13 16 -13 2 6 -8 11 -16 22 -17
24 -2 2 -3 0 -3 -6z"/>
<path d="M7107 1689 c7 -7 15 -10 18 -7 3 3 -2 9 -12 12 -14 6 -15 5 -6 -5z"/>
<path d="M5206 1648 c3 -5 10 -6 15 -3 13 9 11 12 -6 12 -8 0 -12 -4 -9 -9z"/>
<path d="M5455 1621 c-3 -5 -2 -12 3 -15 5 -3 9 1 9 9 0 17 -3 19 -12 6z"/>
<path d="M5345 1610 c-3 -6 1 -7 9 -4 18 7 21 14 7 14 -6 0 -13 -4 -16 -10z"/>
<path d="M6630 1610 c0 -5 9 -8 20 -7 21 1 18 10 -5 13 -8 1 -15 -2 -15 -6z"/>
<path d="M5515 1590 c3 -5 8 -10 11 -10 2 0 4 5 4 10 0 6 -5 10 -11 10 -5 0
-7 -4 -4 -10z"/>
<path d="M5736 1577 c3 -10 9 -15 12 -12 3 3 0 11 -7 18 -10 9 -11 8 -5 -6z"/>
<path d="M5913 1575 c0 -8 4 -12 9 -9 5 3 6 10 3 15 -9 13 -12 11 -12 -6z"/>
<path d="M6046 1568 c3 -5 10 -6 15 -3 13 9 11 12 -6 12 -8 0 -12 -4 -9 -9z"/>
<path d="M6355 1570 c-3 -5 -1 -10 4 -10 6 0 11 5 11 10 0 6 -2 10 -4 10 -3 0
-8 -4 -11 -10z"/>
</g>
</svg>
